<svg xmlns="http://www.w3.org/2000/svg" viewBox="0 0 40 40" width="40" height="40" role="img" aria-label="B mana">
  <title>{B}</title>
  <defs>
    <radialGradient id="bg" cx="50%" cy="38%" r="60%">
      <stop offset="0%" stop-color="#e1d9d6"></stop>
      <stop offset="100%" stop-color="#cbc2bf"></stop>
    </radialGradient>
  </defs>
  <circle cx="20" cy="20" r="19" fill="url(#bg)" stroke="#150b00" stroke-width="1"></circle>
  <path d="M 20 9.86 C 28.619 9.86, 30.647 16.451, 30.647 21.014 C 30.647 24.563000000000002, 27.605 25.577, 26.084 25.577 L 26.084 29.633000000000003 L 13.916 29.633000000000003 L 13.916 25.577 C 12.395 25.577, 9.353 24.563000000000002, 9.353 21.014 C 9.353 16.451, 11.381 9.86, 20 9.86 Z" fill="#150b00"></path>
  <ellipse cx="15.7412" cy="19.493" rx="2.4335999999999998" ry="2.028" fill="#cbc2bf"></ellipse>
  <ellipse cx="24.2588" cy="19.493" rx="2.4335999999999998" ry="2.028" fill="#cbc2bf"></ellipse>
  <path d="M 20 21.014 L 18.5804 24.563000000000002 L 21.4196 24.563000000000002 Z" fill="#cbc2bf"></path>
  <path d="M 18.8846 29.633000000000003 L 18.8846 26.591 L 21.1154 26.591 L 21.1154 29.633000000000003 Z" fill="#cbc2bf"></path>
  <path d="M 16.207639999999998 29.633000000000003 L 16.207639999999998 27.655700000000003 L 17.32304 27.655700000000003 L 17.32304 29.633000000000003 Z" fill="#cbc2bf"></path>
  <path d="M 22.67696 29.633000000000003 L 22.67696 27.655700000000003 L 23.792360000000002 27.655700000000003 L 23.792360000000002 29.633000000000003 Z" fill="#cbc2bf"></path>
</svg>